<svg width="301" height="301" viewBox="0 0 301 301" fill="none" xmlns="http://www.w3.org/2000/svg">
<path d="M127.461 1.05141C125.815 1.41169 123.463 2.13226 122.169 2.61263C120.875 3.2131 114.525 5.1346 108.056 6.81591C85.2405 13.0608 65.0122 24.9501 46.7831 42.7239C36.0809 53.1721 22.7914 71.4263 16.5583 84.0362C12.2068 92.6829 5.73845 111.778 4.44478 119.824C3.97435 122.466 3.0335 124.988 2.32786 125.468C0.446154 126.669 0.56376 179.03 2.32786 182.993C3.1511 184.555 4.9152 190.439 6.32648 196.084C9.26665 207.853 18.3224 230.671 21.3801 234.033C22.5562 235.234 25.614 239.557 28.0837 243.521C39.4915 261.174 67.4819 285.914 82.7708 291.918C84.4172 292.639 89.2391 294.801 93.5906 296.842C102.646 301.166 110.408 301.766 112.878 298.523C113.936 296.962 114.407 291.918 114.525 281.23V266.098L101.353 266.218C88.063 266.338 88.063 266.338 80.1834 261.775C71.0101 256.611 67.4819 252.407 63.7185 242.32C61.6016 236.675 59.1318 233.313 51.9578 226.107C46.9007 221.063 42.7845 216.62 42.7845 216.139C42.7845 214.698 50.8994 215.178 55.0156 216.98C59.7199 219.021 67.7171 226.828 73.3622 235.114C80.889 246.043 93.9434 250.126 107.821 246.043C114.172 244.121 114.525 243.881 115.818 238.957C116.524 236.195 118.876 231.391 121.11 228.149C123.345 225.026 125.109 222.024 125.109 221.423C125.109 220.823 122.639 219.982 119.582 219.502C108.644 217.941 95.0018 213.857 88.063 210.135C73.8327 202.449 63.7185 188.277 60.3079 171.104C59.4846 167.021 58.3086 163.658 57.8382 163.658C56.4269 163.658 56.6621 135.076 58.0734 134.235C58.779 133.875 59.2494 132.794 59.2494 131.833C59.2494 128.111 64.4241 116.461 68.1875 111.297C72.0686 106.133 72.1862 105.533 70.8925 101.57C69.1284 95.8053 69.1284 81.6343 71.0101 73.2277L72.539 66.3824H77.4785C84.7701 66.3824 102.646 73.7081 109.938 79.7128C112.878 82.1147 113.584 82.1147 119.934 80.7936C123.815 79.953 127.696 78.9922 128.637 78.752C136.517 75.8698 165.448 75.8698 173.328 78.752C181.795 81.7544 192.145 82.2347 192.145 79.5927C192.145 78.3918 207.198 70.8259 214.725 68.0637C217.313 67.1029 221.664 66.3824 224.487 66.3824H229.426L230.955 73.2277C232.837 81.7544 232.837 95.9254 231.073 101.57C229.779 105.533 229.897 106.133 233.778 111.297C237.541 116.461 242.716 128.111 242.716 131.833C242.716 132.794 243.304 133.875 243.892 134.235C245.303 135.196 245.538 161.497 244.127 163.178C243.539 163.778 242.48 167.501 241.657 171.464C236.365 197.044 219.665 212.056 190.146 217.941C182.854 219.382 176.856 220.943 176.856 221.543C176.856 222.024 178.738 225.146 180.855 228.269C183.089 231.391 185.559 236.435 186.147 239.317C186.853 242.32 187.441 256.371 187.441 270.542C187.558 299.965 187.676 300.565 195.555 300.565C202.377 300.565 222.017 291.438 236.6 281.71C245.773 275.465 268.472 252.287 273.881 243.641C276.234 239.678 278.938 235.835 279.762 234.874C283.878 230.671 295.403 201.248 297.403 189.478C297.873 186.836 298.932 183.954 299.637 182.993C301.401 180.591 301.401 128.591 299.637 126.309C298.814 125.348 297.873 122.226 297.403 119.224C296.109 111.418 289.053 91.2418 284.348 82.1147C270.471 55.0936 246.832 31.0748 220.018 16.9038C211.197 12.2201 193.791 5.97525 185.676 4.53413C183.089 4.05375 180.267 2.97291 179.326 2.25235C177.679 0.931318 133.694 -0.029431 127.461 1.05141Z" fill="black"/>
</svg>
