<svg width="181" height="70" viewBox="0 0 181 70" fill="none" xmlns="http://www.w3.org/2000/svg">
<path d="M0.43623 66.75H179.917C179.79 68.4281 178.388 69.75 176.677 69.75H3.67676C1.96596 69.75 0.563887 68.4281 0.43623 66.75Z" fill="black" stroke="black" stroke-width="0.5"/>
<rect x="0.426758" y="7.25" width="179.5" height="58.9999" fill="black" fill-opacity="0.2" stroke="black" stroke-width="0.5"/>
<path d="M67.0084 35.85V30.49L69.3284 29.15H73.9884L76.3084 30.49V32.55H74.3084V30.95H69.0084V35.19H73.9884L76.3084 36.53V42.01L73.9884 43.35H69.1284L66.8084 42.01V39.95H68.8084V41.55H74.3084V37.19H69.3284L67.0084 35.85ZM81.239 39.15V41.61H85.259V39.15H81.239ZM81.619 43.35L79.299 42.01V38.75L81.619 37.41H85.259V34.99H80.299V33.25H84.879L87.199 34.59V43.35H86.679L85.259 42.53L83.839 43.35H81.619ZM98.9021 34.49V43.25H96.9621V34.89H92.3421V43.25H90.4021V33.15H91.8621L92.3421 33.97L93.7621 33.15H96.5821L98.9021 34.49ZM101.301 34.99V33.25H103.141V31.57L105.081 30.45V33.25H107.481V34.99H105.081V41.51H107.481V43.25H105.461L103.141 41.91V34.99H101.301ZM110.485 35.65V28.65H113.485V29.49L111.325 35.65H110.485ZM123.166 29.25L128.167 43.25H126.206L125.026 39.93H118.826L117.646 43.25H115.686L120.686 29.25H123.166ZM121.906 31.23L119.466 38.13H124.386L121.946 31.23H121.906ZM138.668 34.49V43.25H136.728V34.89H132.108V43.25H130.168V33.15H131.628L132.108 33.97L133.528 33.15H136.348L138.668 34.49ZM150.367 34.49V43.25H148.427V34.89H143.807V43.25H141.867V33.15H143.327L143.807 33.97L145.227 33.15H148.047L150.367 34.49ZM155.106 39.15V41.61H159.126V39.15H155.106ZM155.486 43.35L153.166 42.01V38.75L155.486 37.41H159.126V34.99H154.166V33.25H158.746L161.066 34.59V43.35H160.546L159.126 42.53L157.706 43.35H155.486ZM175.309 45.57V47.25H162.269V45.57H175.309Z" fill="black"/>
<path d="M24.7531 28.1305C21.1681 25.0959 18.5853 21.2646 18.1104 18.2773C18.0424 17.8496 18.0245 17.5 18.0706 17.5C18.1168 17.5 18.3712 17.9037 18.636 18.3968C19.5538 20.1059 21.7932 23.1783 22.8118 24.1258C23.3747 24.6496 24.3624 25.4532 25.0068 25.9119C26.972 27.3102 28.2505 29.3306 28.8194 31.9369C29.3081 34.1757 30.9409 37.4481 32.5045 39.3231C33.518 40.538 33.5436 40.6078 32.8224 40.1883C30.9137 39.0777 29.2086 36.5558 28.3034 33.5039C27.6295 31.2329 26.629 29.7185 24.7531 28.1305Z" fill="black"/>
<path d="M56.5709 25.6127C57.8332 24.8897 60.5447 21.7331 61.8799 19.4319C62.4963 18.3693 63.0391 17.5428 63.0858 17.5954C63.1327 17.6478 63.0598 18.1591 62.9241 18.7314C62.2347 21.6381 59.7415 25.2793 56.6553 27.8868C54.5139 29.696 53.621 30.9844 52.8949 33.3135C51.8945 36.5223 50.6573 38.5159 48.88 39.7834C48.3591 40.1551 47.874 40.4591 47.802 40.4591C47.73 40.4591 48.1397 39.8942 48.7123 39.2035C50.1941 37.417 51.3874 35.0484 52.2119 32.2569C52.6046 30.9282 53.1578 29.3961 53.4418 28.8523C54.0752 27.6391 55.3661 26.3026 56.5709 25.6127Z" fill="black"/>
<path d="M16.9235 20.113C17.0234 19.5309 17.1163 18.9469 17.1297 18.8154C17.1431 18.6838 17.3449 19.0605 17.578 19.6524C18.9012 23.0123 20.3496 25.1425 22.4609 26.8336C25.9579 29.6346 27.2976 31.2549 27.9148 33.4298C28.2397 34.5751 28.2373 34.7372 27.8758 36.027C27.3655 37.8484 26.0883 40.0279 25.081 40.796C23.9772 41.6381 23.4844 41.6171 24.186 40.758C24.9127 39.8679 25.5674 38.536 25.7583 37.5588L25.9157 36.7521L25.195 37.8102C24.2162 39.2468 22.9264 39.9829 21.4048 39.9731L20.2132 39.9657L20.8524 39.4391C22.5534 38.0378 24.7938 35.3079 24.7938 34.6365C24.7938 34.4988 24.4823 34.7234 24.1014 35.1349C22.9434 36.3872 21.0778 37.3505 19.8186 37.3464C17.9583 37.3402 17.9855 37.0578 19.9673 35.8091C21.6605 34.7425 23.596 32.9404 22.5568 33.3984C19.9239 34.5586 17.4182 34.317 16.7117 32.8352C16.5097 32.4114 16.6033 32.3861 18.3554 32.3894C19.5798 32.3916 20.4674 32.266 20.9589 32.0211L21.7046 31.6492L20.787 31.6299C19.1925 31.5959 17.9819 31.1188 17.1001 30.1772C15.9264 28.924 16.0438 28.7102 17.6033 29.2593C18.3358 29.5172 19.606 29.7788 20.4263 29.8407L21.9176 29.9531L20.6229 29.3918C18.0365 28.2704 16.4292 26.6671 16.1708 24.9505C15.9405 23.4208 16.2068 23.3261 17.2857 24.5546C18.2457 25.6476 19.9179 27.0663 20.2462 27.0663C20.3393 27.0663 19.7115 26.2706 18.851 25.2982C17.0584 23.2723 16.5945 22.0248 16.9235 20.113Z" fill="black"/>
<path d="M57.4971 27.7943C60.3792 25.6024 62.2943 23.1209 63.2897 20.2881C63.8099 18.8077 63.8835 18.7051 64.0614 19.2119C64.3522 20.0403 64.3194 22.3166 64.0068 23.0016C63.857 23.3299 63.0526 24.3789 62.2189 25.3324C61.3854 26.2859 60.7748 27.0663 60.8622 27.0663C61.2382 27.0663 62.8823 25.7115 63.8255 24.6245C64.9387 23.3416 65.2344 23.439 64.973 25.0028C64.6907 26.6918 62.9369 28.3886 60.369 29.4571L59.2015 29.9429L60.6928 29.8355C61.5131 29.7764 62.7835 29.5172 63.5157 29.2593C64.2482 29.0015 64.8473 28.8831 64.8473 28.9963C64.8473 29.1094 64.5567 29.5734 64.2018 30.0273C63.4456 30.9942 62.0397 31.6019 60.4951 31.6299L59.4145 31.6492L60.1602 32.0197C60.6557 32.2658 61.5303 32.3863 62.7681 32.3789C64.5386 32.3681 64.6195 32.3901 64.4116 32.8259C63.7007 34.3173 61.2026 34.5617 58.5623 33.3984C57.5215 32.9397 59.4597 34.7432 61.156 35.812C62.632 36.7418 62.8975 36.9925 62.6026 37.1778C62.0453 37.528 60.1372 37.2567 59.0672 36.6754C58.5374 36.3874 57.7037 35.7675 57.2145 35.2973C56.7254 34.8274 56.3253 34.5127 56.3253 34.5978C56.3253 35.2497 58.6548 38.1113 60.2667 39.4391L60.9059 39.9657L59.7143 39.9731C58.2054 39.9827 56.9041 39.2487 55.9524 37.8513C55.5717 37.2921 55.2609 36.9774 55.2621 37.152C55.2658 37.7047 56.2352 39.8294 56.8671 40.6695L57.4751 41.4781L56.9536 41.2959C55.527 40.7977 53.9553 38.5683 53.2456 36.0356C52.9201 34.8738 52.9016 34.5198 53.1216 33.6775C53.6638 31.6033 55.1942 29.5456 57.4971 27.7943Z" fill="black"/>
<path d="M35.4761 31.126C34.8525 30.4561 34.3811 29.2266 34.3811 28.2697C34.3811 27.8708 34.4162 27.5446 34.4593 27.5446C34.5023 27.5446 34.7765 27.95 35.0686 28.4455C35.3607 28.941 36.0205 29.6661 36.535 30.0569C37.0493 30.4477 38.1041 31.3338 38.8788 32.0259C39.6532 32.718 40.4004 33.2844 40.5389 33.2844C40.9034 33.2844 44.0429 30.5252 45.4953 28.9286C46.5857 27.7297 46.738 27.63 46.738 28.1157C46.738 29.8867 45.7254 31.3682 43.8618 32.3241C42.3391 33.105 42.0243 33.469 41.3165 35.2655C40.6194 37.0348 40.2809 37.0307 39.7461 35.2469C39.3247 33.8411 38.6299 33.0194 37.2798 32.3301C36.5644 31.9647 35.7527 31.4228 35.4761 31.126Z" fill="black"/>
<path d="M35.0368 31.9805C34.9337 31.909 34.7413 31.5002 34.6095 31.0726C34.377 30.3188 34.4039 30.3332 35.4872 31.5459C36.3663 32.5298 36.5495 32.8591 36.3452 33.0885C35.7261 33.7835 36.3509 35.8008 37.2651 36.0583C37.8105 36.2119 38.4386 36.1219 39.1504 35.7881C39.9197 35.4274 39.3984 36.2549 38.5639 36.7191C37.7978 37.1453 37.7221 37.1467 36.7998 36.7514C35.4333 36.1655 34.9589 35.2459 35.1091 33.475C35.1725 32.7247 35.1402 32.0522 35.0368 31.9805Z" fill="black"/>
<path d="M39.3737 32.0764C38.7296 31.5187 38.1523 30.9705 38.0903 30.8581C38.0285 30.7457 39.134 30.6536 40.547 30.6536C41.9599 30.6536 43.1161 30.6917 43.1161 30.7378C43.1161 30.7842 42.5375 31.3326 41.8304 31.9563L40.5444 33.0902L39.3737 32.0764Z" fill="black"/>
<path d="M44.8001 33.2413C44.599 32.8194 44.6931 32.6066 45.4791 31.7076C46.5147 30.5233 46.7659 30.5058 46.1732 31.6598C45.8406 32.3076 45.8057 32.6109 45.9768 33.3693C46.1485 34.1295 46.1121 34.4404 45.769 35.1436C44.9548 36.8124 43.3646 37.4227 42.1525 36.5314C41.5449 36.0844 41.426 35.5279 41.9976 35.8063C43.0326 36.3104 43.734 36.215 44.3883 35.4805C45.0668 34.7188 45.1887 34.0564 44.8001 33.2413Z" fill="black"/>
<path d="M29.9249 32.8343C29.6807 32.4492 29.4809 32.08 29.4809 32.0135C29.4809 31.9472 29.8883 32.1252 30.3864 32.4093C31.0828 32.8065 31.6728 32.9256 32.943 32.9256C34.5845 32.9256 34.5941 32.9292 34.5941 33.5553C34.5941 34.0064 34.458 34.2262 34.1148 34.3295C32.5821 34.7906 30.7515 34.1374 29.9249 32.8343Z" fill="black"/>
<path d="M47.963 32.9696C49.1755 33.0538 49.5684 32.9768 50.4664 32.4784C51.0523 32.1531 51.5644 31.8786 51.6045 31.8683C51.6446 31.8578 51.4954 32.1991 51.273 32.6264C50.5256 34.063 48.6312 34.8188 47.0043 34.3295C46.6545 34.2242 46.5249 34.0073 46.5249 33.5276V32.8699L47.963 32.9696Z" fill="black"/>
<path d="M38.3206 35.7204C37.253 36.2664 36.2762 35.0878 36.5991 33.6431C36.7329 33.0447 37.2249 32.8386 37.4675 33.2793C37.5385 33.4082 37.4895 33.738 37.3589 34.0121C37.0252 34.7121 37.4694 35.2696 38.2571 35.1397C38.9996 35.0175 39.0364 35.3543 38.3206 35.7204Z" fill="black"/>
<path d="M43.5497 33.6531C43.3716 33.4123 43.381 33.2997 43.5866 33.2069C44.1503 32.9531 44.3898 33.0607 44.5159 33.6242C44.7112 34.4983 44.5604 34.9776 43.9213 35.5128C43.4347 35.9201 43.2548 35.9538 42.8027 35.7226C42.063 35.3442 42.1274 35.073 42.9564 35.0756C43.518 35.0775 43.662 34.9738 43.7184 34.5268C43.7566 34.2235 43.6807 33.8303 43.5497 33.6531Z" fill="black"/>
<path d="M33.3991 36.1542C32.1393 36.1542 31.3266 35.7984 30.6523 34.951L30.2266 34.4165L30.7592 34.6277C31.0522 34.7439 32.036 34.8389 32.9457 34.8389C34.3306 34.8389 34.6188 34.9066 34.717 35.2552C34.9143 35.9536 34.6201 36.1542 33.3991 36.1542Z" fill="black"/>
<path d="M47.8032 34.9061C48.5649 34.9429 49.4757 34.8779 49.8272 34.7614C50.7178 34.4663 50.7902 34.6624 50.0403 35.3378C49.3138 35.9918 48.4818 36.2236 47.2612 36.1119C46.5226 36.0442 46.4184 35.9608 46.4184 35.4368C46.4184 34.8535 46.4521 34.8405 47.8032 34.9061Z" fill="black"/>
<path d="M26.1441 40.3871C26.9098 39.5275 27.7509 38.283 28.0867 37.5126C28.4122 36.7655 28.7063 36.1542 28.7399 36.1542C28.7738 36.1542 29.065 36.6596 29.3874 37.2771L29.9735 38.3997L28.9144 39.4893C27.85 40.5841 26.4688 41.4678 25.3795 41.751C24.869 41.8835 24.9676 41.7077 26.1441 40.3871Z" fill="black"/>
<path d="M51.4852 37.7506C51.6507 37.4646 51.9196 36.9882 52.083 36.6923C52.2462 36.3965 52.4019 36.1542 52.4288 36.1542C52.4558 36.1542 52.7358 36.7665 53.0513 37.5148C53.4024 38.348 54.1575 39.4646 54.9997 40.3962C56.22 41.746 56.3059 41.8988 55.7641 41.7555C54.6584 41.4628 52.7087 40.1651 51.9398 39.2095C51.2451 38.3463 51.2084 38.2287 51.4852 37.7506Z" fill="black"/>
<path d="M36.2681 36.9736C37.1188 37.4674 37.9382 37.4352 38.8551 36.8717C39.2652 36.6196 39.6694 36.4089 39.7531 36.4034C40.0678 36.3826 40.3516 37.3648 40.2148 38.0027C40.0141 38.9397 39.3098 40.4591 39.0761 40.4591C38.9678 40.4591 38.5279 40.2261 38.0979 39.9415L37.3167 39.424L37.8728 39.0968C38.6218 38.6563 38.5765 38.513 37.786 38.8223C36.7941 39.2104 36.205 38.9213 35.767 37.831C35.5539 37.3008 35.4337 36.8062 35.4998 36.732C35.5658 36.6579 35.9116 36.7667 36.2681 36.9736Z" fill="black"/>
<path d="M40.9479 38.2174C40.7419 37.3526 40.7477 37.074 40.9777 36.7626C41.1346 36.5508 41.3205 36.408 41.3915 36.4453C41.4622 36.4826 41.9889 36.7218 42.5618 36.9772C43.5497 37.4172 43.6535 37.421 44.577 37.0482C45.1126 36.832 45.585 36.6933 45.6265 36.7402C45.8008 36.9358 44.7969 38.7613 44.4464 38.8861C44.2368 38.9607 43.7316 38.9182 43.3243 38.7917C42.6483 38.5814 42.6195 38.592 42.997 38.9122C43.2246 39.1054 43.5122 39.2666 43.6362 39.2707C43.8674 39.2783 42.2667 40.4557 42.0221 40.4579C41.7658 40.4603 41.2021 39.2846 40.9479 38.2174Z" fill="black"/>
<path d="M32.4551 37.3452C31.9911 37.0793 31.6114 36.8301 31.6114 36.7913C31.6114 36.7524 32.3784 36.7206 33.3158 36.7206C34.2532 36.7206 35.0202 36.7997 35.0202 36.8961C35.0202 36.9927 35.0784 37.2419 35.1495 37.45C35.3462 38.0252 33.5184 37.9541 32.4551 37.3452Z" fill="black"/>
<path d="M45.9695 37.45C46.0407 37.2419 46.0988 36.9992 46.0988 36.9104C46.0988 36.8217 46.8658 36.7418 47.8032 36.7332C48.7407 36.7244 49.5077 36.7497 49.5077 36.7897C49.5077 36.8294 49.128 37.0793 48.664 37.3452C47.6006 37.9541 45.7729 38.0252 45.9695 37.45Z" fill="black"/>
<path d="M35.0085 40.7281C34.592 40.5767 33.825 39.9571 33.3041 39.3513L32.3571 38.2495L33.2029 38.4183C35.3634 38.8495 37.6005 40.0704 39.441 41.8227L40.5595 42.8877L41.678 41.7785C42.2933 41.1684 43.5635 40.2575 44.501 39.7543C46.1964 38.8443 48.1746 38.1655 48.3985 38.4169C48.6744 38.7266 46.5518 40.6018 45.4501 41.0216C43.8846 41.6183 42.2999 42.6502 41.3367 43.7006L40.5416 44.5673L39.6087 43.6018C38.683 42.644 36.4621 41.2566 35.0085 40.7281Z" fill="black"/>
<path d="M27.4921 41.1878C28.4176 40.6681 29.404 39.9685 29.6844 39.6332C29.965 39.2982 30.2496 39.0277 30.3169 39.032C30.4842 39.043 31.3984 39.9088 31.3984 40.0561C31.3984 40.1211 30.991 40.4421 30.4929 40.769C29.3925 41.4915 27.5338 42.1332 26.5414 42.1332C25.8682 42.1332 25.9443 42.0576 27.4921 41.1878Z" fill="black"/>
<path d="M49.7207 40.0561C49.7207 39.991 49.9363 39.7358 50.2001 39.489C50.4638 39.242 50.7112 39.0366 50.7502 39.032C50.7889 39.0277 51.2227 39.3939 51.7142 39.8459C52.2055 40.2979 53.2284 40.9972 53.987 41.4001C55.3244 42.1104 55.3433 42.1327 54.6064 42.1329C53.5882 42.1332 51.7385 41.4994 50.6262 40.769C50.1281 40.4421 49.7207 40.1211 49.7207 40.0561Z" fill="black"/>
<path d="M28.7203 42.3113C29.5325 42.0805 30.5871 41.6273 31.0639 41.3042C31.9721 40.6889 32.5891 40.5674 33.0691 40.9089C33.2879 41.0646 33.2127 41.2241 32.7495 41.5872C31.604 42.4854 30.302 42.8791 28.7295 42.803L27.2439 42.731L28.7203 42.3113Z" fill="black"/>
<path d="M49.7727 42.3704C48.1919 41.5864 47.6901 41.1646 48.0414 40.9149C48.5319 40.5662 48.984 40.6662 50.2201 41.3961C50.8699 41.7797 51.9582 42.2372 52.6384 42.4125L53.8752 42.731L52.3293 42.8014C51.1247 42.8561 50.5599 42.7609 49.7727 42.3704Z" fill="black"/>
<path d="M38.8078 46.067C36.9654 43.8998 35.4463 41.9423 35.4463 41.7357C35.4463 41.2449 37.9056 42.9396 38.5164 43.8513C38.8756 44.3872 38.8762 44.3831 38.5347 43.7267C37.9865 42.6725 38.272 42.7385 39.4647 43.9424L40.5595 45.0473L41.6544 43.9424C42.8464 42.7394 43.1477 42.6677 42.5618 43.7267C42.2499 44.2906 42.346 44.238 43.1308 43.4148C44.1041 42.3936 45.4101 41.5195 45.6163 41.751C45.7416 41.8916 44.7181 43.2555 42.1977 46.3062L40.6273 48.2073L38.8078 46.067Z" fill="black"/>
<path d="M31.3984 43.0125C31.8085 42.9224 32.4214 42.6593 32.7606 42.428C33.6239 41.839 34.8964 41.9968 35.1941 42.7299C35.3862 43.2034 35.3521 43.3012 34.9527 43.4215C34.3259 43.6102 31.8473 43.5621 31.1853 43.3486C30.677 43.1843 30.6868 43.1689 31.3984 43.0125Z" fill="black"/>
<path d="M45.929 42.7198C46.0965 42.3073 46.3615 42.1389 46.927 42.0858C47.4123 42.0404 48.0446 42.2126 48.6382 42.5517C49.1561 42.8475 49.7793 43.1005 50.023 43.1137C50.4106 43.1345 50.3993 43.1615 49.9338 43.3289C49.2967 43.5581 46.8215 43.6188 46.1664 43.4215C45.7641 43.3005 45.732 43.2053 45.929 42.7198Z" fill="black"/>
<path d="M33.1028 48.8889C33.1028 47.9365 33.139 47.888 34.5409 46.9567C35.3319 46.4315 36.0671 45.9922 36.1747 45.9807C36.2823 45.969 35.6626 46.7938 34.7969 47.8131C33.9315 48.8324 33.1963 49.7116 33.1631 49.7663C33.13 49.8211 33.1028 49.4262 33.1028 48.8889Z" fill="black"/>
<path d="M47.9098 49.7917L46.3119 47.827L44.714 45.8623L46.0072 46.6602C47.9871 47.8813 48.0529 47.9571 47.9771 48.93L47.9098 49.7917Z" fill="black"/>
<path d="M34.4855 50.4931C34.3619 49.861 34.4961 49.5618 35.5586 48.1042C36.2265 47.1877 36.8032 46.438 36.8405 46.438C36.8776 46.438 36.4673 47.5632 35.9287 48.9386C35.3901 50.314 34.8768 51.389 34.7882 51.3275C34.6994 51.2658 34.5632 50.8904 34.4855 50.4931Z" fill="black"/>
<path d="M46.1189 51.3096C45.9721 51.1176 45.2912 49.4349 44.5018 47.314C44.3224 46.8321 44.2057 46.438 44.2425 46.438C44.2794 46.438 44.8514 47.1777 45.514 48.0817C46.6877 49.6831 46.7129 49.7484 46.4981 50.6215C46.3769 51.1145 46.2062 51.4239 46.1189 51.3096Z" fill="black"/>
<path d="M44.3229 52.4767C44.2543 52.1151 43.9637 50.8774 43.6773 49.7264C43.3908 48.5756 43.1903 47.6338 43.2318 47.6338C43.2734 47.6338 43.7853 48.5057 44.3697 49.5714L45.432 51.5093L45.0869 52.3217C44.6686 53.3063 44.4873 53.3432 44.3229 52.4767Z" fill="black"/>
<path d="M35.6091 51.4964L36.6202 49.6752C37.1763 48.6739 37.665 47.8923 37.7066 47.9387C37.7914 48.0339 36.6038 53.1107 36.4585 53.2736C36.4072 53.3312 36.195 52.955 35.9873 52.4372L35.6091 51.4964Z" fill="black"/>
<path d="M37.8655 51.1924C38.151 50.3532 38.4929 49.3557 38.6257 48.9757C38.7584 48.5959 38.8945 48.3268 38.9282 48.3778C39.0435 48.5536 38.5814 54.3302 38.4518 54.3285C38.3807 54.3275 38.1028 53.965 37.8346 53.5225L37.3467 52.718L37.8655 51.1924Z" fill="black"/>
<path d="M39.1346 53.4931L39.3547 50.9042C39.5718 48.3498 39.5799 48.3225 39.956 48.8714C40.1656 49.1773 40.3392 49.5083 40.3418 49.6068C40.3524 50.0124 40.7212 49.7441 40.9594 49.1574C41.0998 48.8116 41.2831 48.605 41.3664 48.6985C41.4499 48.7918 41.625 49.9593 41.7554 51.2926L41.9925 53.7172L41.3293 54.8563C40.9645 55.4829 40.6145 55.9976 40.5512 55.9999C40.4882 56.0023 40.1437 55.4391 39.7855 54.7487L39.1346 53.4931Z" fill="black"/>
<path d="M42.4565 53.3726C42.3839 52.7811 42.2588 51.3871 42.1789 50.2748C42.099 49.1622 42.0901 48.3156 42.1593 48.3931C42.2284 48.4708 42.6155 49.4791 43.0192 50.6338L43.7534 52.7331L43.1709 53.5904L42.5884 54.4476L42.4565 53.3726Z" fill="black"/>
<path d="M3.24527 31.8604V26.25L16.0943 33.7755V39.7295L3.23712 47.2499V41.6364L12.0147 36.7961V36.7143L3.24527 31.8604Z" fill="black"/>
<mask id="path-6-inside-1_223_43" fill="white">
<path fill-rule="evenodd" clip-rule="evenodd" d="M7.17675 0C3.31076 0 0.176758 3.134 0.176758 6.99999H180.177C180.177 3.134 177.043 0 173.177 0H7.17675ZM5.8027 5.39254C6.6903 5.39254 7.40984 4.60904 7.40984 3.64255C7.40984 2.67605 6.6903 1.89255 5.8027 1.89255C4.9151 1.89255 4.19556 2.67605 4.19556 3.64255C4.19556 4.60904 4.9151 5.39254 5.8027 5.39254ZM11.7544 3.64255C11.7544 4.60904 11.0348 5.39254 10.1472 5.39254C9.25964 5.39254 8.5401 4.60904 8.5401 3.64255C8.5401 2.67605 9.25964 1.89255 10.1472 1.89255C11.0348 1.89255 11.7544 2.67605 11.7544 3.64255ZM14.4918 5.39254C15.3794 5.39254 16.0989 4.60904 16.0989 3.64255C16.0989 2.67605 15.3794 1.89255 14.4918 1.89255C13.6042 1.89255 12.8846 2.67605 12.8846 3.64255C12.8846 4.60904 13.6042 5.39254 14.4918 5.39254Z"/>
</mask>
<path fill-rule="evenodd" clip-rule="evenodd" d="M7.17675 0C3.31076 0 0.176758 3.134 0.176758 6.99999H180.177C180.177 3.134 177.043 0 173.177 0H7.17675ZM5.8027 5.39254C6.6903 5.39254 7.40984 4.60904 7.40984 3.64255C7.40984 2.67605 6.6903 1.89255 5.8027 1.89255C4.9151 1.89255 4.19556 2.67605 4.19556 3.64255C4.19556 4.60904 4.9151 5.39254 5.8027 5.39254ZM11.7544 3.64255C11.7544 4.60904 11.0348 5.39254 10.1472 5.39254C9.25964 5.39254 8.5401 4.60904 8.5401 3.64255C8.5401 2.67605 9.25964 1.89255 10.1472 1.89255C11.0348 1.89255 11.7544 2.67605 11.7544 3.64255ZM14.4918 5.39254C15.3794 5.39254 16.0989 4.60904 16.0989 3.64255C16.0989 2.67605 15.3794 1.89255 14.4918 1.89255C13.6042 1.89255 12.8846 2.67605 12.8846 3.64255C12.8846 4.60904 13.6042 5.39254 14.4918 5.39254Z" fill="black"/>
<path d="M0.176758 6.99999H-0.323242V7.49999H0.176758V6.99999ZM180.177 6.99999V7.49999H180.677V6.99999H180.177ZM0.676758 6.99999C0.676758 3.41015 3.5869 0.5 7.17675 0.5V-0.5C3.03462 -0.5 -0.323242 2.85786 -0.323242 6.99999H0.676758ZM180.177 6.49999H0.176758V7.49999H180.177V6.49999ZM173.177 0.5C176.767 0.5 179.677 3.41015 179.677 6.99999H180.677C180.677 2.85786 177.319 -0.5 173.177 -0.5V0.5ZM7.17675 0.5H173.177V-0.5H7.17675V0.5ZM6.90984 3.64255C6.90984 4.37384 6.37493 4.89254 5.8027 4.89254V5.89254C7.00567 5.89254 7.90984 4.84425 7.90984 3.64255H6.90984ZM5.8027 2.39255C6.37493 2.39255 6.90984 2.91126 6.90984 3.64255H7.90984C7.90984 2.44084 7.00567 1.39255 5.8027 1.39255V2.39255ZM4.69556 3.64255C4.69556 2.91126 5.23047 2.39255 5.8027 2.39255V1.39255C4.59973 1.39255 3.69556 2.44084 3.69556 3.64255H4.69556ZM5.8027 4.89254C5.23047 4.89254 4.69556 4.37384 4.69556 3.64255H3.69556C3.69556 4.84425 4.59973 5.89254 5.8027 5.89254V4.89254ZM10.1472 5.89254C11.3502 5.89254 12.2544 4.84425 12.2544 3.64255H11.2544C11.2544 4.37384 10.7195 4.89254 10.1472 4.89254V5.89254ZM8.0401 3.64255C8.0401 4.84425 8.94427 5.89254 10.1472 5.89254V4.89254C9.57502 4.89254 9.0401 4.37384 9.0401 3.64255H8.0401ZM10.1472 1.39255C8.94427 1.39255 8.0401 2.44084 8.0401 3.64255H9.0401C9.0401 2.91126 9.57502 2.39255 10.1472 2.39255V1.39255ZM12.2544 3.64255C12.2544 2.44084 11.3502 1.39255 10.1472 1.39255V2.39255C10.7195 2.39255 11.2544 2.91126 11.2544 3.64255H12.2544ZM15.5989 3.64255C15.5989 4.37384 15.064 4.89254 14.4918 4.89254V5.89254C15.6948 5.89254 16.5989 4.84425 16.5989 3.64255H15.5989ZM14.4918 2.39255C15.064 2.39255 15.5989 2.91126 15.5989 3.64255H16.5989C16.5989 2.44084 15.6948 1.39255 14.4918 1.39255V2.39255ZM13.3846 3.64255C13.3846 2.91126 13.9196 2.39255 14.4918 2.39255V1.39255C13.2888 1.39255 12.3846 2.44084 12.3846 3.64255H13.3846ZM14.4918 4.89254C13.9196 4.89254 13.3846 4.37384 13.3846 3.64255H12.3846C12.3846 4.84425 13.2888 5.89254 14.4918 5.89254V4.89254Z" fill="black" mask="url(#path-6-inside-1_223_43)"/>
</svg>
